<?xml version="1.0" encoding="UTF-8" standalone="no"?><!DOCTYPE svg PUBLIC "-//W3C//DTD SVG 1.1//EN" "http://www.w3.org/Graphics/SVG/1.1/DTD/svg11.dtd"><svg width="100%" height="100%" viewBox="0 0 384 312" version="1.1" xmlns="http://www.w3.org/2000/svg" xmlns:xlink="http://www.w3.org/1999/xlink" xml:space="preserve" xmlns:serif="http://www.serif.com/" style="fill-rule:evenodd;clip-rule:evenodd;stroke-linejoin:round;stroke-miterlimit:1.41421;"><g><path d="M347,269l0,-269c-54,5 -96,17 -146,37l0,268c50,-20 93,-31 146,-36Z" style="fill:#f8f9fa;"/><path d="M384,38l-21,0l0,240c0,3 -2,6 -6,7c-47,4 -86,10 -130,27l157,0l0,-274Z" style="fill:#f8f9fa;"/><path d="M37,0l0,269c53,5 96,16 146,36l0,-268c-51,-21 -92,-32 -146,-37Z" style="fill:#f8f9fa;"/><path d="M0,38l0,274l157,0c-42,-17 -84,-23 -130,-27c-4,-1 -6,-4 -6,-7l0,-240l-21,0Z" style="fill:#f8f9fa;"/></g></svg>