<svg width="50" height="50" viewBox="0 0 50 50" fill="none" xmlns="http://www.w3.org/2000/svg">
<g clip-path="url(#clip0)">
<path d="M32.7148 48.7305C34.082 48.7305 33.8867 50.3906 33.8867 50.3906H16.1132C16.1132 50.3906 15.9179 48.7305 17.2851 48.7305C18.5547 48.7305 18.8476 48.1445 18.8476 47.5586L18.75 42.6758C11.8164 44.2383 10.3515 39.9414 10.3515 39.9414C9.17966 37.0117 7.61716 36.3281 7.61716 36.3281C5.27341 34.7656 7.71481 34.7656 7.71481 34.7656C10.2539 34.9609 11.6211 37.3047 11.6211 37.3047C13.7695 41.1133 17.3828 40.039 18.8476 39.4531C19.0429 37.793 19.7265 36.7187 20.4101 36.0351C14.8437 35.4492 9.082 33.3008 9.082 23.7305C9.082 20.9961 10.0586 18.75 11.6211 16.9922C11.3281 16.4062 10.5468 13.8672 11.914 10.4492C11.914 10.4492 13.9648 9.76561 18.75 12.9883C22.8515 11.8164 27.1484 11.8164 31.25 12.9883C36.0351 9.76561 38.0859 10.4492 38.0859 10.4492C39.4531 13.8672 38.6718 16.4062 38.3789 16.9922C39.9414 18.75 40.9179 20.9961 40.9179 23.7305C40.9179 33.3008 35.0586 35.4492 29.4922 36.0351C30.4687 36.8164 31.25 38.3789 31.25 40.7226L31.1523 47.5586C31.1523 48.1445 31.4453 48.7305 32.7148 48.7305Z" fill="white"/>
</g>
<defs>
<clipPath id="clip0">
<rect width="50" height="50" fill="white"/>
</clipPath>
</defs>
</svg>
