<?xml version="1.0" encoding="UTF-8" standalone="no"?><!DOCTYPE svg PUBLIC "-//W3C//DTD SVG 1.1//EN" "http://www.w3.org/Graphics/SVG/1.1/DTD/svg11.dtd"><svg width="100%" height="100%" viewBox="0 0 180 180" version="1.1" xmlns="http://www.w3.org/2000/svg" xmlns:xlink="http://www.w3.org/1999/xlink" xml:space="preserve" xmlns:serif="http://www.serif.com/" style="fill-rule:evenodd;clip-rule:evenodd;stroke-linejoin:round;stroke-miterlimit:1.41421;"><path d="M169,182.25l-47,0c-4,0 -8,-3.677 -8,-7.354l0,-56.997l-48,0l0,56.997c0,3.677 -3,7.354 -8,7.354l-47,0c-6,0 -11,-4.596 -11,-10.112l0,-110.315c0,-2.758 2,-5.516 5,-7.355l79,-52.4c4,-2.757 9,-2.757 12,0l80,52.4c3,1.839 4,4.597 4,7.355l0,110.315c0,5.516 -5,10.112 -11,10.112Z" style="fill:#f8f9fa;"/></svg>