<svg width="32" height="26" viewBox="0 0 32 26" fill="none" xmlns="http://www.w3.org/2000/svg">
<path d="M10.2 25.7C21.9875 25.7 28.4375 15.925 28.4375 7.46252C28.4375 7.18752 28.4375 6.91252 28.425 6.63752C29.675 5.73752 30.7625 4.60002 31.625 3.31252C30.475 3.82502 29.2375 4.16252 27.9375 4.32502C29.2625 3.53752 30.275 2.27502 30.7625 0.775018C29.525 1.51252 28.15 2.03752 26.6875 2.32502C25.5125 1.07502 23.85 0.300018 22.0125 0.300018C18.475 0.300018 15.6 3.17502 15.6 6.71252C15.6 7.21252 15.6625 7.70002 15.7625 8.17502C10.4375 7.91252 5.71251 5.35002 2.55001 1.47502C2.00001 2.42502 1.68751 3.52502 1.68751 4.70002C1.68751 6.92502 2.82501 8.88752 4.53751 10.0375C3.48751 10 2.50001 9.71252 1.63751 9.23752C1.63751 9.26252 1.63751 9.28752 1.63751 9.32502C1.63751 12.425 3.85001 15.025 6.77501 15.6125C6.23751 15.7625 5.67501 15.8375 5.08751 15.8375C4.67501 15.8375 4.27501 15.8 3.88751 15.725C4.70001 18.275 7.07501 20.125 9.87501 20.175C7.67501 21.9 4.91251 22.925 1.91251 22.925C1.40001 22.925 0.887512 22.9 0.387512 22.8375C3.21251 24.6375 6.58751 25.7 10.2 25.7Z" fill="white"/>
</svg>
